<?xml version="1.0"?>
<svg xmlns="http://www.w3.org/2000/svg" xmlns:xlink="http://www.w3.org/1999/xlink" xmlns:svgjs="http://svgjs.com/svgjs" version="1.1" width="512" height="512" x="0" y="0" viewBox="0 0 512 512" style="enable-background:new 0 0 512 512" xml:space="preserve" class=""><g><g xmlns="http://www.w3.org/2000/svg" id="outline"><path d="m24 480h128a8 8 0 0 0 6.039-2.752l38.751-44.59h51.21a23.919 23.919 0 0 0 24-23.781 23.469 23.469 0 0 0 -3.031-11.56 23.729 23.729 0 0 0 11.031-20 23.472 23.472 0 0 0 -3.031-11.56 23.729 23.729 0 0 0 11.031-20 23.468 23.468 0 0 0 -3.031-11.559 23.735 23.735 0 0 0 -12.969-43.787h-23.112l-4.763-20.955 7.755-1.715a133.183 133.183 0 0 1 72.419 4.2l29.826 10.341a24.072 24.072 0 0 0 27.1 13.46 23.83 23.83 0 0 0 15.1-10.565 23.454 23.454 0 0 0 3.087-17.871l-42.012-184.783a24.079 24.079 0 0 0 -43.737-7.423 23.457 23.457 0 0 0 -3.674 13.1l-22.433 21.851a131.914 131.914 0 0 1 -63.636 34.279l-85.868 18.99a63.532 63.532 0 0 0 -40.267 28.153 62.205 62.205 0 0 0 -8.212 47.334l.005.03v.016l.006.03a63.683 63.683 0 0 0 47.522 47.61 55.3 55.3 0 0 0 -4.211 3.739l-.132.131a85.07 85.07 0 0 0 -24.361 48.068l-3.99 27.548-86.484 100.812a8 8 0 0 0 6.072 13.209zm303.178-396.332a7.938 7.938 0 0 1 5.038-3.506 8.239 8.239 0 0 1 1.781-.2 7.957 7.957 0 0 1 7.8 6.1l42.008 184.782a7.561 7.561 0 0 1 -1 5.76 7.937 7.937 0 0 1 -5.038 3.506 8.006 8.006 0 0 1 -9.585-5.909l-42.005-184.772a7.563 7.563 0 0 1 1.001-5.761zm-28.458 37.849 15.018-14.629 35.651 156.817-19.849-6.882a149.152 149.152 0 0 0 -73.3-6.215l-18.419-81.02-2.636-11.588a147.739 147.739 0 0 0 63.535-36.483zm-79.11 40.152 20.957 92.187-62.439 13.809-20.957-92.187zm12.87 128.742h-21.2l-.191-.188a54.056 54.056 0 0 0 -14.546-10.244l31.957-7.067zm-97.19-21.145 2.052-.454a8 8 0 1 0 -3.455-15.622l-15.612 3.453a8.031 8.031 0 0 0 -1.44.468 46.8 46.8 0 0 1 -9.169-14.081l22.675-5.014a8 8 0 1 0 -3.455-15.622l-22.786 5.039a46.027 46.027 0 0 1 2.137-16.584 7.982 7.982 0 0 0 1.493-.178l15.612-3.452a8 8 0 0 0 -3.455-15.622l-2.276.5a47.839 47.839 0 0 1 23.9-13.158l.041-.009 20.957 92.188a48.451 48.451 0 0 1 -27.219-1.852zm-17.218 105.368a8 8 0 0 0 1.845-4.062l4.324-29.847a68.983 68.983 0 0 1 19.771-38.98l.133-.131a38.069 38.069 0 0 1 26.909-10.984h1.892a38.069 38.069 0 0 1 26.909 10.984l2.527 2.492a8 8 0 0 0 5.618 2.305h64a7.784 7.784 0 1 1 0 15.562h-8a8 8 0 0 0 0 16 7.784 7.784 0 1 1 0 15.561h-8a8 8 0 0 0 0 16 7.784 7.784 0 1 1 0 15.562h-8a8 8 0 0 0 0 16 7.784 7.784 0 1 1 0 15.562h-54.857a8 8 0 0 0 -6.039 2.752l-38.75 44.59h-106.954z" fill="#abd0f7" data-original="#000000" style="" class=""/><path d="m400.151 152.014a7.99 7.99 0 0 0 9.4 6.3l80-15.78a8 8 0 1 0 -3.1-15.7l-80 15.781a8 8 0 0 0 -6.3 9.399z" fill="#abd0f7" data-original="#000000" style="" class=""/><path d="m393.943 100.459a8 8 0 0 0 11.284.831l64-55.233a8 8 0 1 0 -10.454-12.114l-64 55.233a8 8 0 0 0 -.83 11.283z" fill="#abd0f7" data-original="#000000" style="" class=""/><path d="m490.27 219.332-72-21.305a8 8 0 0 0 -4.54 15.343l72 21.3a8 8 0 0 0 4.54-15.342z" fill="#abd0f7" data-original="#000000" style="" class=""/></g></g></svg>
